<svg width="885" height="367" viewBox="0 0 885 367" fill="none" xmlns="http://www.w3.org/2000/svg">
<path d="M1 1H225.64V37.96H44.2V159.88H206.44V196.84H44.2V328.84H232.84V365.8H1V1ZM319.24 1H423.4C461.16 1 491.48 11.08 514.36 31.24C537.24 51.4 548.68 77.96 548.68 110.92C548.68 133.32 542.6 153.32 530.44 170.92C518.28 188.52 501.48 201.64 480.04 210.28L585.16 365.8H533.8L437.8 219.88C432.532 220.314 427.245 220.475 421.96 220.36H361V365.8H319.24V1ZM361 184.36H413.8C443.88 184.36 466.52 178.2 481.72 165.88C496.92 153.56 504.52 135.24 504.52 110.92C504.52 86.92 497.08 68.6 482.2 55.96C467.32 43.32 445.8 37 417.64 37H361V184.36ZM654.76 1H760.36C797.16 1 827 11.32 849.88 31.96C872.76 52.6 884.2 79.56 884.2 112.84C884.2 134.6 879.16 154.04 869.08 171.16C859 188.28 844.6 201.8 825.88 211.72C807.16 221.64 785.32 226.6 760.36 226.6H696.52V365.8H654.76V1ZM696.52 190.6H752.68C780.84 190.6 802.44 184.04 817.48 170.92C832.52 157.8 840.04 138.92 840.04 114.28C840.04 89.64 832.44 70.6 817.24 57.16C802.04 43.72 780.52 37 752.68 37H696.52V190.6Z" stroke="#E3332B"/>
</svg>
